<?xml version="1.0" standalone="no"?>
<!DOCTYPE svg PUBLIC "-//W3C//DTD SVG 20010904//EN"
 "http://www.w3.org/TR/2001/REC-SVG-20010904/DTD/svg10.dtd">
<svg version="1.0" xmlns="http://www.w3.org/2000/svg"
 width="512.000000pt" height="512.000000pt" viewBox="0 0 512.000000 512.000000"
 preserveAspectRatio="xMidYMid meet">
<metadata>
Created by potrace 1.14, written by Peter Selinger 2001-2017
</metadata>
<g transform="translate(0.000000,512.000000) scale(0.100000,-0.100000)"
fill="#000000" stroke="none">
<path d="M1400 5037 c-55 -36 -72 -76 -71 -160 1 -40 3 -83 6 -97 3 -14 9 -50
15 -80 44 -240 204 -472 432 -628 27 -18 46 -37 43 -42 -3 -5 -30 -23 -59 -40
-148 -84 -329 -248 -435 -392 -33 -46 -65 -89 -71 -95 -30 -36 -133 -260 -165
-358 l-37 -113 -126 3 c-129 3 -182 15 -265 57 -45 23 -167 137 -167 156 0 8
-8 26 -18 40 -41 61 -45 95 -49 457 -4 302 -7 355 -21 384 -61 124 -251 102
-282 -32 -4 -18 -6 -189 -5 -382 2 -324 4 -355 24 -423 71 -242 228 -418 458
-511 90 -37 175 -52 303 -54 l105 -2 2 -218 c2 -162 -1 -219 -10 -222 -7 -3
-213 -6 -459 -7 -433 -3 -447 -4 -474 -24 -48 -35 -68 -71 -70 -124 -3 -55 19
-97 69 -134 28 -20 40 -21 486 -24 l457 -3 2 -152 c0 -84 4 -178 7 -209 4 -32
3 -58 -2 -59 -4 0 -57 -2 -118 -3 -228 -6 -392 -69 -540 -208 -108 -100 -176
-216 -217 -365 -19 -71 -21 -107 -23 -423 -1 -190 2 -361 8 -380 22 -86 117
-132 203 -99 38 14 83 66 89 103 2 17 6 182 8 366 3 293 6 341 22 384 41 111
97 182 189 241 89 56 143 68 310 69 l149 1 42 -95 c314 -723 1106 -1093 1860
-869 84 25 246 94 297 126 21 13 42 23 48 23 5 0 10 5 10 10 0 6 4 10 10 10 5
0 34 17 62 37 244 171 443 417 552 681 l32 77 144 0 c90 -1 164 -6 195 -15
114 -31 218 -113 277 -218 48 -87 51 -108 55 -475 4 -268 8 -356 19 -382 31
-76 146 -110 213 -63 19 12 44 36 55 51 20 27 21 40 22 359 0 366 -5 428 -42
538 -78 229 -263 410 -492 480 -84 26 -143 34 -270 34 l-103 1 6 75 c3 41 6
136 7 210 l2 135 457 5 c442 5 458 6 485 26 51 38 68 70 69 129 0 58 -17 91
-69 129 -27 20 -41 21 -485 24 l-458 3 -1 223 -1 222 82 0 c194 0 319 32 447
112 175 110 291 267 342 464 20 77 22 107 22 444 l1 360 -25 37 c-75 110 -254
80 -275 -47 -2 -17 -6 -182 -8 -366 -4 -363 -5 -370 -63 -470 -42 -72 -103
-131 -173 -168 -82 -44 -132 -54 -268 -57 l-121 -3 -37 113 c-42 130 -122 294
-191 392 -132 187 -311 357 -480 454 -30 17 -56 34 -59 39 -3 5 14 22 37 37
217 138 394 394 438 635 6 29 12 64 15 77 2 13 5 56 6 96 3 116 -43 175 -143
183 -44 3 -59 0 -87 -20 -50 -33 -69 -73 -76 -158 -12 -140 -49 -251 -118
-355 -96 -147 -265 -260 -439 -296 -77 -16 -615 -18 -708 -3 -247 39 -455 211
-540 443 -30 81 -36 113 -45 221 -9 109 -65 170 -155 170 -32 0 -58 -7 -80
-23z m1315 -1141 c347 -44 674 -247 870 -541 65 -98 145 -265 145 -303 0 -17
-66 -18 -1172 -17 -1030 0 -1173 2 -1170 15 22 99 124 287 218 401 204 249
516 419 819 445 39 4 71 7 72 8 5 4 170 -2 218 -8z m-309 -2261 c0 -600 -1
-1095 -3 -1101 -6 -16 -114 6 -234 46 -431 144 -746 513 -824 965 -15 87 -18
171 -17 632 0 292 2 535 5 540 4 5 233 9 539 9 l533 -1 1 -1090z m1385 1065
c0 -14 1 -257 1 -540 0 -550 -4 -617 -54 -780 -94 -307 -337 -589 -637 -740
-107 -53 -313 -114 -376 -111 -12 1 -15 2183 -3 2192 4 3 246 5 538 5 l530 0
1 -26z"/>
</g>
</svg>
